<?xml version="1.0" encoding="UTF-8"?>
<svg id="Layer_1" xmlns="http://www.w3.org/2000/svg" version="1.1" viewBox="0 0 209 140">
  <!-- Generator: Adobe Illustrator 29.2.1, SVG Export Plug-In . SVG Version: 2.1.0 Build 116)  -->
  <defs>
    <style>
      .st0 {
        fill: #231f20;
      }
    </style>
  </defs>
  <g id="_x31_01">
    <path class="st0" d="M98.8,28.2c3.4,4.6,5.1,10.1,5.1,16.6s-1.7,11.9-5.1,16c-1.9,2.2-4.7,4.3-8.4,6.2,5.6,2,9.9,5.2,12.8,9.6,2.9,4.4,4.3,9.7,4.3,15.9s-1.6,12.2-4.9,17.3c-2.1,3.4-4.7,6.2-7.8,8.5-3.5,2.6-7.7,4.4-12.5,5.4-4.8,1-10,1.5-15.6,1.5H16.8V16.7h53.3c13.5.2,23,4.1,28.6,11.6h0ZM38.8,35.5v23.9h26.8c4.8,0,8.7-.9,11.7-2.7,3-1.8,4.5-5,4.5-9.5s-2-8.4-5.9-10c-3.4-1.1-7.8-1.7-13.1-1.7h-24ZM38.8,77.3v28.9h26.8c4.8,0,8.5-.6,11.2-1.9,4.8-2.4,7.3-6.9,7.3-13.5s-2.3-9.5-7-11.6c-2.6-1.2-6.3-1.8-11.1-1.8h-27.2ZM174.1,46.5c5.7,2.5,10.4,6.5,14.1,11.9,3.4,4.8,5.5,10.3,6.5,16.6.6,3.7.8,9,.7,15.9h-59.5c.4,8,3.2,13.7,8.6,16.9,3.3,2,7.2,3,11.8,3s8.8-1.2,11.8-3.7c1.7-1.3,3.1-3.2,4.4-5.5h21.8c-.6,4.8-3.2,9.6-7.9,14.5-7.3,7.8-17.6,11.7-30.7,11.7s-20.4-3.3-28.8-9.9c-8.3-6.6-12.5-17.3-12.5-32.1s3.8-24.6,11.2-32c7.5-7.4,17.2-11.1,29.2-11.1,7.1,0,13.5,1.2,19.2,3.8h0ZM142.2,64.6c-3,3.1-4.9,7.2-5.7,12.4h36.8c-.4-5.6-2.3-9.8-5.7-12.7-3.4-2.9-7.6-4.3-12.7-4.3-5.5,0-9.7,1.6-12.7,4.6h0ZM130.9,35.2h47.3v-13.5h-47.3v13.5Z"/>
  </g>
</svg>