<?xml version="1.0" encoding="UTF-8"?>
<svg id="Layer_1" xmlns="http://www.w3.org/2000/svg" version="1.1" viewBox="0 0 288 288">
  <!-- Generator: Adobe Illustrator 29.2.1, SVG Export Plug-In . SVG Version: 2.1.0 Build 116)  -->
  <defs>
    <style>
      .st0 {
        fill: #231f20;
      }
    </style>
  </defs>
  <g id="_x31_01">
    <path class="st0" d="M141.76,95.22c3.37,4.61,5.06,10.11,5.06,16.55s-1.69,11.95-5.1,15.97c-1.92,2.23-4.72,4.3-8.43,6.16,5.63,2.02,9.87,5.21,12.76,9.57,2.86,4.36,4.3,9.66,4.3,15.88s-1.64,12.19-4.92,17.28c-2.08,3.37-4.69,6.22-7.82,8.53-3.52,2.65-7.67,4.45-12.47,5.44-4.8.98-9.99,1.46-15.6,1.46h-49.74v-108.39h53.34c13.47.2,22.99,4.05,28.62,11.56h0ZM81.8,102.49v23.92h26.84c4.78,0,8.67-.9,11.68-2.69,2.98-1.79,4.49-4.97,4.49-9.51,0-5.07-1.98-8.39-5.93-10.03-3.42-1.12-7.77-1.69-13.05-1.69h-24.02ZM81.8,144.34v28.91h26.81c4.79,0,8.53-.63,11.19-1.91,4.84-2.38,7.26-6.87,7.26-13.54,0-5.66-2.33-9.52-7.02-11.63-2.63-1.17-6.32-1.79-11.05-1.82h-27.18ZM217.07,113.53c5.71,2.5,10.4,6.46,14.09,11.86,3.37,4.77,5.54,10.29,6.52,16.57.58,3.67.8,8.99.71,15.91h-59.47c.36,8.04,3.17,13.68,8.55,16.91,3.26,2.01,7.17,3.02,11.78,3.02,4.85,0,8.8-1.22,11.84-3.67,1.67-1.33,3.14-3.17,4.4-5.51h21.79c-.58,4.75-3.23,9.58-7.9,14.49-7.31,7.78-17.55,11.68-30.71,11.68-10.88,0-20.45-3.28-28.75-9.86-8.33-6.57-12.47-17.27-12.47-32.08,0-13.89,3.75-24.55,11.24-31.96,7.51-7.39,17.23-11.11,29.18-11.11,7.12-.01,13.52,1.24,19.2,3.76h0ZM185.16,131.64c-3.01,3.06-4.91,7.19-5.69,12.4h36.79c-.39-5.57-2.3-9.78-5.68-12.68-3.43-2.88-7.64-4.31-12.67-4.31-5.46.01-9.72,1.55-12.74,4.59h0ZM173.95,102.21h47.31v-13.49h-47.31v13.49Z"/>
  </g>
</svg>