<?xml version="1.0" encoding="UTF-8"?>
<svg id="Layer_1" xmlns="http://www.w3.org/2000/svg" version="1.1" viewBox="0 0 288 288">
  <!-- Generator: Adobe Illustrator 29.2.1, SVG Export Plug-In . SVG Version: 2.1.0 Build 116)  -->
  <defs>
    <style>
      .st0 {
        fill: #231f20;
      }
    </style>
  </defs>
  <path class="st0" d="M231.02,96.38v93.93c0,8.37-6.82,15.14-15.19,15.14H77.26c-8.32,0-15.14-6.77-15.14-15.14v-93.93c0-8.37,6.82-15.14,15.14-15.14h138.57c8.37,0,15.19,6.77,15.19,15.14ZM221.69,190.31v-93.83c-8.51,8.03-35.79,33.81-50.88,47.93l50.64,47.64c.15-.58.24-1.16.24-1.74ZM214.43,90.53H77.46c14.22,13.2,53.15,49.29,60.17,55.62,6.58,5.95,10.98,5.95,17.51.05,5.95-5.32,46.53-43.63,59.3-55.67ZM77.6,196.11h134.55l-48.17-45.32c-1.16,1.02-2.03,1.84-2.61,2.37-5.08,4.55-9.96,6.77-14.95,6.77s-9.92-2.27-15.04-6.87c-.63-.53-1.5-1.35-2.61-2.37l-51.17,45.42ZM71.46,189.15l50.4-44.79c-14.61-13.49-40.19-37.19-50.4-46.67v91.46Z"/>
</svg>