<?xml version="1.0" encoding="UTF-8"?>
<svg id="Layer_1" data-name="Layer 1" xmlns="http://www.w3.org/2000/svg" viewBox="0 0 274.74 268.58">
  <defs>
    <style>
      .cls-1 {
        fill: #fff;
      }
    </style>
  </defs>
  <path class="cls-1" d="M272.6,222.68l-25.64-10.99c-1.88-.8-4.1-.2-5.21,1.51-3.09,4.73-7.75,8.92-14.78,11.42-22.98,8.2-54.11-6.65-80.96-37.15,8.47,1.33,13.99.46,13.99.46,0,0,29.03-1.34,51.81-17.25,28.57-19.96,29.87-61.68,19.48-82.59-8.82-17.74-28.61-37.15-58.99-34.87-25.73,1.93-52.82,27.58-78.86,49.17-26.04,21.59-51.89,12.8-51.89,12.8,0,0-26.25-8.3-22.14-38.83,5.72-42.52,42.09-53.67,42.47-53.64,25.05-6.66,34.13,11.55,37.05,20.73.74,2.32,3.53,3.22,5.48,1.76l23.53-17.6c1.65-1.24,1.91-3.62.54-5.17C117.88,10.48,92.25-1.61,74.09.18c-17.88,1.75-37.15,8.01-57.79,33.2C-7.64,62.58,1.86,90.69,1.86,90.69c0,0,7.91,38.51,53.86,42.47,14.06,1.21,25.42-.03,35.02-2.82l-14.99,134.97c-.25,2.26,2.05,3.94,4.12,3.01l42.22-14.57c1.55-.53,2.37-2.23,1.82-3.78-3.64-10.34-4.48-12.66-6.07-26.71-1.16-10.22-1.14-27.42-.65-45.14,12.11,13.51,40.36,44.55,55.73,57.73,10.96,9.4,38.56,27.04,69.53,17.74,12.95-3.89,23.96-13.48,31.75-25.8,1.16-1.83.39-4.26-1.6-5.11ZM139.1,97.68c23.19-19.87,42.07-24.25,59.47-17.36,24.09,9.53,18.94,37.26,15.11,45.9-7.51,16.97-21.92,29.9-46.37,32.97-17.25,2.17-24.83-4.02-28.72-8.92-1.41-1.78-4.05-1.94-5.7-.38l-15.15,12.21c1.02-25.12,2.57-47.3,2.57-47.3,0-.2,0-.4-.02-.6,6.62-5.36,12.58-11.17,18.81-16.52Z"/>
</svg>