<?xml version="1.0" encoding="UTF-8"?>
<svg id="Layer_1" xmlns="http://www.w3.org/2000/svg" version="1.1" viewBox="0 0 288 288">
  <!-- Generator: Adobe Illustrator 29.2.1, SVG Export Plug-In . SVG Version: 2.1.0 Build 116)  -->
  <defs>
    <style>
      .st0 {
        fill: #231f20;
      }
    </style>
  </defs>
  <path class="st0" d="M201.36,69.17h-108.3c-6.73,0-12.19,5.46-12.19,12.19v108.3c0,6.73,5.46,12.19,12.19,12.19h108.3c6.73,0,12.19-5.46,12.19-12.19v-108.3c0-6.73-5.46-12.19-12.19-12.19ZM107.31,84.97c5.3,0,9.6,4.3,9.6,9.6s-4.3,9.6-9.6,9.6-9.6-4.3-9.6-9.6h0c0-5.3,4.3-9.6,9.6-9.6ZM118.19,183.11c0,1.62-1.31,2.94-2.94,2.94h-15.9c-1.62,0-2.94-1.32-2.94-2.94h0v-64.84c0-1.62,1.31-2.94,2.94-2.94h15.9c1.62,0,2.94,1.32,2.94,2.94h0v64.84ZM197.99,186.05h-22.36v-40.48c.08-6.84-5.4-12.45-12.25-12.53-6.84-.08-12.45,5.4-12.53,12.25,0,.1,0,.19,0,.29v37.54c0,1.62-1.32,2.94-2.94,2.94h-15.9c-1.62,0-2.94-1.32-2.94-2.94v-66.3c0-1.62,1.32-2.65,2.94-2.65h15.9c1.62,0,2.94,1.03,2.94,2.65v6.49c2.06-2.58,4.56-4.77,7.39-6.47,1.7-1.02,3.53-1.79,5.45-2.3h.02c1.15-.25,2.33-.38,3.51-.38h6.69c13.3,0,24.08,10.78,24.08,24.07h0v47.82Z"/>
</svg>