<?xml version="1.0" encoding="UTF-8"?>
<svg id="Layer_1" xmlns="http://www.w3.org/2000/svg" version="1.1" viewBox="0 0 169 166">
  <!-- Generator: Adobe Illustrator 29.2.1, SVG Export Plug-In . SVG Version: 2.1.0 Build 116)  -->
  <defs>
    <style>
      .st0 {
        fill: #231f20;
      }
    </style>
  </defs>
  <path class="st0" d="M137.4,19.2H29.1c-6.7,0-12.2,5.5-12.2,12.2v108.3c0,6.7,5.5,12.2,12.2,12.2h108.3c6.7,0,12.2-5.5,12.2-12.2V31.4c0-6.7-5.5-12.2-12.2-12.2ZM43.3,35c5.3,0,9.6,4.3,9.6,9.6s-4.3,9.6-9.6,9.6-9.6-4.3-9.6-9.6h0c0-5.3,4.3-9.6,9.6-9.6ZM54.2,133.1c0,1.6-1.3,2.9-2.9,2.9h-15.9c-1.6,0-2.9-1.3-2.9-2.9h0v-64.8c0-1.6,1.3-2.9,2.9-2.9h15.9c1.6,0,2.9,1.3,2.9,2.9h0v64.8ZM134,136.1h-22.4v-40.5c0-6.8-5.4-12.4-12.2-12.5-6.8,0-12.4,5.4-12.5,12.2v37.8c0,1.6-1.3,2.9-2.9,2.9h-15.9c-1.6,0-2.9-1.3-2.9-2.9v-66.3c0-1.6,1.3-2.7,2.9-2.7h15.9c1.6,0,2.9,1,2.9,2.7v6.5c2.1-2.6,4.6-4.8,7.4-6.5,1.7-1,3.5-1.8,5.4-2.3h0c1.1-.2,2.3-.4,3.5-.4h6.7c13.3,0,24.1,10.8,24.1,24.1h0v47.8h0Z"/>
</svg>