<?xml version="1.0" encoding="UTF-8"?>
<svg id="Layer_1" xmlns="http://www.w3.org/2000/svg" version="1.1" viewBox="0 0 288 288">
  <!-- Generator: Adobe Illustrator 29.2.1, SVG Export Plug-In . SVG Version: 2.1.0 Build 116)  -->
  <defs>
    <style>
      .st0 {
        fill: #231f20;
      }
    </style>
  </defs>
  <path class="st0" d="M243.27,204.41l-18.23-7.82c-1.33-.57-2.92-.14-3.71,1.07-2.19,3.36-5.51,6.34-10.51,8.13-16.34,5.83-38.49-4.73-57.58-26.43,6.02.94,9.95.33,9.95.33,0,0,20.65-.95,36.85-12.27,20.32-14.2,21.25-43.87,13.86-58.75-6.27-12.62-20.35-26.42-41.96-24.8-18.3,1.37-37.57,19.62-56.09,34.98-18.53,15.36-36.91,9.11-36.91,9.11,0,0-18.67-5.9-15.75-27.62,4.07-30.24,29.94-38.18,30.21-38.15,17.82-4.73,24.27,8.21,26.35,14.74.52,1.65,2.51,2.29,3.9,1.25l16.73-12.52c1.18-.88,1.36-2.58.38-3.68-7.54-8.5-25.77-17.1-38.68-15.83-12.72,1.25-26.42,5.69-41.11,23.61-17.03,20.77-10.27,40.77-10.27,40.77,0,0,5.63,27.39,38.31,30.21,10,.86,18.08-.02,24.91-2.01l-10.67,96c-.18,1.61,1.46,2.8,2.93,2.14l30.03-10.37c1.1-.38,1.68-1.59,1.3-2.69-2.59-7.36-3.19-9.01-4.32-19-.82-7.27-.81-19.5-.46-32.1,8.62,9.61,28.71,31.69,39.64,41.06,7.8,6.68,27.42,19.23,49.45,12.62,9.21-2.77,17.04-9.59,22.59-18.35.82-1.3.28-3.03-1.14-3.64ZM148.32,115.5c16.49-14.14,29.93-17.25,42.3-12.35,17.13,6.78,13.47,26.5,10.75,32.65-5.34,12.07-15.59,21.26-32.98,23.45-12.27,1.54-17.66-2.86-20.43-6.34-1.01-1.26-2.88-1.38-4.06-.27l-10.78,8.68c.72-17.87,1.83-33.64,1.83-33.64,0-.15,0-.29-.01-.43,4.71-3.81,8.95-7.95,13.38-11.75Z"/>
</svg>