<?xml version="1.0" encoding="UTF-8"?>
<svg id="Layer_1" xmlns="http://www.w3.org/2000/svg" version="1.1" viewBox="0 0 220 214">
  <!-- Generator: Adobe Illustrator 29.2.1, SVG Export Plug-In . SVG Version: 2.1.0 Build 116)  -->
  <defs>
    <style>
      .st0 {
        fill: #231f20;
      }
    </style>
  </defs>
  <path class="st0" d="M201.3,173.4l-18.2-7.8c-1.3-.6-2.9-.1-3.7,1.1-2.2,3.4-5.5,6.3-10.5,8.1-16.3,5.8-38.5-4.7-57.6-26.4,6,.9,9.9.3,9.9.3,0,0,20.6-.9,36.9-12.3,20.3-14.2,21.2-43.9,13.9-58.8-6.3-12.6-20.4-26.4-42-24.8-18.3,1.4-37.6,19.6-56.1,35-18.5,15.4-36.9,9.1-36.9,9.1,0,0-18.7-5.9-15.8-27.6,4.1-30.2,29.9-38.2,30.2-38.2,17.8-4.7,24.3,8.2,26.3,14.7.5,1.7,2.5,2.3,3.9,1.2l16.7-12.5c1.2-.9,1.4-2.6.4-3.7-7.5-8.5-25.8-17.1-38.7-15.8-12.7,1.2-26.4,5.7-41.1,23.6C1.9,59.5,8.7,79.5,8.7,79.5c0,0,5.6,27.4,38.3,30.2,10,.9,18.1,0,24.9-2l-10.7,96c-.2,1.6,1.5,2.8,2.9,2.1l30-10.4c1.1-.4,1.7-1.6,1.3-2.7-2.6-7.4-3.2-9-4.3-19-.8-7.3-.8-19.5-.5-32.1,8.6,9.6,28.7,31.7,39.6,41.1,7.8,6.7,27.4,19.2,49.4,12.6,9.2-2.8,17-9.6,22.6-18.4.8-1.3.3-3-1.1-3.6h0ZM106.3,84.5c16.5-14.1,29.9-17.2,42.3-12.3,17.1,6.8,13.5,26.5,10.8,32.7-5.3,12.1-15.6,21.3-33,23.4-12.3,1.5-17.7-2.9-20.4-6.3-1-1.3-2.9-1.4-4.1-.3l-10.8,8.7c.7-17.9,1.8-33.6,1.8-33.6,0-.2,0-.3,0-.4,4.7-3.8,8.9-7.9,13.4-11.8h0Z"/>
</svg>